M48
; DRILL file {KiCad (6.0.7)} date Wed Apr  5 20:56:51 2023
; FORMAT={-:-/ absolute / metric / decimal}
; #@! TF.CreationDate,2023-04-05T20:56:51+02:00
; #@! TF.GenerationSoftware,Kicad,Pcbnew,(6.0.7)
; #@! TF.FileFunction,Plated,1,2,PTH
FMAT,2
METRIC
; #@! TA.AperFunction,Plated,PTH,ViaDrill
T1C0.400
; #@! TA.AperFunction,Plated,PTH,ComponentDrill
T2C1.940
; #@! TA.AperFunction,Plated,PTH,ComponentDrill
T3C3.200
%
G90
G05
T1
X101.825Y-121.625
X102.148Y-157.012
X104.25Y-129.475
X104.688Y-157.012
X105.156Y-141.732
X107.188Y-156.718
X107.696Y-128.778
X107.75Y-95.6
X108.9Y-120.45
X110.05Y-120.725
X111.2Y-121.075
X112.975Y-105.725
X113.788Y-115.319
X115.57Y-121.412
X118.863Y-121.412
X119.35Y-100.45
X120.525Y-122.15
X121.475Y-115.35
X123.19Y-121.412
X125.175Y-122.0
X125.725Y-124.9
X127.775Y-104.4
X128.27Y-141.986
X128.475Y-145.025
X130.048Y-129.032
X130.325Y-114.425
X130.425Y-101.65
X130.81Y-121.412
X133.125Y-124.975
X136.525Y-99.15
X138.075Y-114.575
X138.43Y-121.412
X141.7Y-101.675
X141.85Y-107.025
X144.375Y-94.4
X146.575Y-116.075
X146.8Y-117.55
X146.925Y-98.55
X147.0Y-108.425
X148.6Y-120.925
X148.85Y-102.6
X149.025Y-98.825
X150.425Y-122.575
X151.625Y-123.125
X151.725Y-107.825
X151.892Y-141.986
X152.25Y-144.025
X153.8Y-101.825
X154.037Y-122.987
X154.432Y-129.032
X154.725Y-103.375
X154.8Y-121.75
X155.525Y-145.8
X156.425Y-122.675
X157.025Y-106.075
X157.3Y-104.6
X157.625Y-93.875
X160.782Y-157.226
X163.282Y-157.266
X163.625Y-100.175
X163.825Y-107.475
X163.925Y-143.65
X165.35Y-99.925
X165.5Y-143.825
X165.822Y-157.52
X166.225Y-142.9
X168.8Y-112.75
X169.575Y-141.825
X170.088Y-127.938
X172.075Y-122.2
T2
X118.872Y-148.844
X118.872Y-164.144
X148.844Y-148.884
X148.844Y-164.184
T3
X100.076Y-97.282
X100.076Y-162.052
X168.402Y-97.282
X168.402Y-162.052
T0
M30
