%TF.GenerationSoftware,KiCad,Pcbnew,(6.0.7)*%
%TF.CreationDate,2023-04-05T20:56:44+02:00*%
%TF.ProjectId,rlc_meter,726c635f-6d65-4746-9572-2e6b69636164,rev?*%
%TF.SameCoordinates,Original*%
%TF.FileFunction,Soldermask,Bot*%
%TF.FilePolarity,Negative*%
%FSLAX46Y46*%
G04 Gerber Fmt 4.6, Leading zero omitted, Abs format (unit mm)*
G04 Created by KiCad (PCBNEW (6.0.7)) date 2023-04-05 20:56:44*
%MOMM*%
%LPD*%
G01*
G04 APERTURE LIST*
G04 Aperture macros list*
%AMRoundRect*
0 Rectangle with rounded corners*
0 $1 Rounding radius*
0 $2 $3 $4 $5 $6 $7 $8 $9 X,Y pos of 4 corners*
0 Add a 4 corners polygon primitive as box body*
4,1,4,$2,$3,$4,$5,$6,$7,$8,$9,$2,$3,0*
0 Add four circle primitives for the rounded corners*
1,1,$1+$1,$2,$3*
1,1,$1+$1,$4,$5*
1,1,$1+$1,$6,$7*
1,1,$1+$1,$8,$9*
0 Add four rect primitives between the rounded corners*
20,1,$1+$1,$2,$3,$4,$5,0*
20,1,$1+$1,$4,$5,$6,$7,0*
20,1,$1+$1,$6,$7,$8,$9,0*
20,1,$1+$1,$8,$9,$2,$3,0*%
G04 Aperture macros list end*
%ADD10C,2.910000*%
%ADD11R,0.850000X0.250000*%
%ADD12R,1.310000X2.120000*%
%ADD13R,0.900000X0.800000*%
%ADD14C,5.600000*%
%ADD15RoundRect,0.250000X0.625000X-0.312500X0.625000X0.312500X-0.625000X0.312500X-0.625000X-0.312500X0*%
%ADD16RoundRect,0.250000X0.325000X0.650000X-0.325000X0.650000X-0.325000X-0.650000X0.325000X-0.650000X0*%
%ADD17RoundRect,0.250000X-0.325000X-0.650000X0.325000X-0.650000X0.325000X0.650000X-0.325000X0.650000X0*%
%ADD18RoundRect,0.250000X-0.625000X0.312500X-0.625000X-0.312500X0.625000X-0.312500X0.625000X0.312500X0*%
%ADD19R,0.600000X1.250000*%
%ADD20RoundRect,0.250000X-0.312500X-0.625000X0.312500X-0.625000X0.312500X0.625000X-0.312500X0.625000X0*%
%ADD21R,4.300000X1.600000*%
%ADD22R,0.600000X1.200000*%
G04 APERTURE END LIST*
D10*
%TO.C,J105*%
X148844000Y-148884000D03*
X148844000Y-164184000D03*
%TD*%
%TO.C,J101*%
X118872000Y-148844000D03*
X118872000Y-164144000D03*
%TD*%
D11*
%TO.C,IC103*%
X117782000Y-103182000D03*
X117782000Y-103632000D03*
X117782000Y-104082000D03*
X117782000Y-104532000D03*
X117782000Y-104982000D03*
X117782000Y-105432000D03*
X114882000Y-105432000D03*
X114882000Y-104982000D03*
X114882000Y-104532000D03*
X114882000Y-104082000D03*
X114882000Y-103632000D03*
X114882000Y-103182000D03*
D12*
X116332000Y-104307000D03*
%TD*%
D13*
%TO.C,D103*%
X106426000Y-136532000D03*
X106426000Y-134232000D03*
%TD*%
%TO.C,D102*%
X129286000Y-136532000D03*
X129286000Y-134232000D03*
%TD*%
%TO.C,D101*%
X153162000Y-136532000D03*
X153162000Y-134232000D03*
%TD*%
D14*
%TO.C,*%
X100076000Y-162052000D03*
%TD*%
%TO.C,REF\u002A\u002A*%
X168402000Y-162052000D03*
%TD*%
%TO.C,*%
X100076000Y-97282000D03*
%TD*%
%TO.C,*%
X168402000Y-97282000D03*
%TD*%
D15*
%TO.C,R120*%
X123701500Y-126365500D03*
X123701500Y-123440500D03*
%TD*%
%TO.C,R102*%
X160335000Y-139604500D03*
X160335000Y-136679500D03*
%TD*%
%TO.C,R117*%
X131321500Y-126365500D03*
X131321500Y-123440500D03*
%TD*%
D16*
%TO.C,C113*%
X120825000Y-109525000D03*
X117875000Y-109525000D03*
%TD*%
D17*
%TO.C,C114*%
X114857000Y-97957000D03*
X117807000Y-97957000D03*
%TD*%
D18*
%TO.C,R103*%
X164145000Y-136679500D03*
X164145000Y-139604500D03*
%TD*%
%TO.C,R111*%
X135131500Y-123440500D03*
X135131500Y-126365500D03*
%TD*%
D17*
%TO.C,C115*%
X114857000Y-94147000D03*
X117807000Y-94147000D03*
%TD*%
D19*
%TO.C,Q101*%
X164592000Y-133350000D03*
X162682000Y-133350000D03*
X163637000Y-131250000D03*
%TD*%
D15*
%TO.C,R118*%
X135131500Y-113665500D03*
X135131500Y-110740500D03*
%TD*%
%TO.C,R114*%
X142751500Y-113665500D03*
X142751500Y-110740500D03*
%TD*%
D18*
%TO.C,R106*%
X140208000Y-136713500D03*
X140208000Y-139638500D03*
%TD*%
D15*
%TO.C,R123*%
X168375000Y-105287500D03*
X168375000Y-102362500D03*
%TD*%
%TO.C,R108*%
X113538000Y-139638500D03*
X113538000Y-136713500D03*
%TD*%
D20*
%TO.C,R101*%
X154412500Y-124725000D03*
X157337500Y-124725000D03*
%TD*%
D15*
%TO.C,R121*%
X119891500Y-126365500D03*
X119891500Y-123440500D03*
%TD*%
D18*
%TO.C,R109*%
X117348000Y-136713500D03*
X117348000Y-139638500D03*
%TD*%
D19*
%TO.C,Q102*%
X140655000Y-133384000D03*
X138745000Y-133384000D03*
X139700000Y-131284000D03*
%TD*%
D21*
%TO.C,L102*%
X107950000Y-102609000D03*
X107950000Y-99909000D03*
%TD*%
D18*
%TO.C,R119*%
X127511500Y-110740500D03*
X127511500Y-113665500D03*
%TD*%
D22*
%TO.C,U102*%
X114999500Y-119803000D03*
X114049500Y-119803000D03*
X113099500Y-119803000D03*
X113099500Y-117303000D03*
X114049500Y-117303000D03*
X114999500Y-117303000D03*
%TD*%
%TO.C,U101*%
X137859500Y-119803000D03*
X136909500Y-119803000D03*
X135959500Y-119803000D03*
X135959500Y-117303000D03*
X136909500Y-117303000D03*
X137859500Y-117303000D03*
%TD*%
D18*
%TO.C,R115*%
X116081500Y-123440500D03*
X116081500Y-126365500D03*
%TD*%
D22*
%TO.C,U103*%
X130173500Y-119823000D03*
X129223500Y-119823000D03*
X128273500Y-119823000D03*
X128273500Y-117323000D03*
X129223500Y-117323000D03*
X130173500Y-117323000D03*
%TD*%
D19*
%TO.C,Q103*%
X117795000Y-133384000D03*
X115885000Y-133384000D03*
X116840000Y-131284000D03*
%TD*%
D17*
%TO.C,C112*%
X111575000Y-109525000D03*
X114525000Y-109525000D03*
%TD*%
D15*
%TO.C,R112*%
X138941500Y-126365500D03*
X138941500Y-123440500D03*
%TD*%
D22*
%TO.C,U104*%
X122619500Y-119803000D03*
X121669500Y-119803000D03*
X120719500Y-119803000D03*
X120719500Y-117303000D03*
X121669500Y-117303000D03*
X122619500Y-117303000D03*
%TD*%
D15*
%TO.C,R122*%
X164685000Y-105211500D03*
X164685000Y-102286500D03*
%TD*%
D21*
%TO.C,L101*%
X123952000Y-102609000D03*
X123952000Y-99909000D03*
%TD*%
D18*
%TO.C,R116*%
X127511500Y-123440500D03*
X127511500Y-126365500D03*
%TD*%
D15*
%TO.C,R105*%
X136652000Y-139638500D03*
X136652000Y-136713500D03*
%TD*%
D18*
%TO.C,R113*%
X112271500Y-123440500D03*
X112271500Y-126365500D03*
%TD*%
M02*
