%TF.GenerationSoftware,KiCad,Pcbnew,(6.0.7)*%
%TF.CreationDate,2023-04-19T21:38:57+02:00*%
%TF.ProjectId,rlc_meter,726c635f-6d65-4746-9572-2e6b69636164,rev?*%
%TF.SameCoordinates,Original*%
%TF.FileFunction,Paste,Top*%
%TF.FilePolarity,Positive*%
%FSLAX46Y46*%
G04 Gerber Fmt 4.6, Leading zero omitted, Abs format (unit mm)*
G04 Created by KiCad (PCBNEW (6.0.7)) date 2023-04-19 21:38:57*
%MOMM*%
%LPD*%
G01*
G04 APERTURE LIST*
G04 Aperture macros list*
%AMRoundRect*
0 Rectangle with rounded corners*
0 $1 Rounding radius*
0 $2 $3 $4 $5 $6 $7 $8 $9 X,Y pos of 4 corners*
0 Add a 4 corners polygon primitive as box body*
4,1,4,$2,$3,$4,$5,$6,$7,$8,$9,$2,$3,0*
0 Add four circle primitives for the rounded corners*
1,1,$1+$1,$2,$3*
1,1,$1+$1,$4,$5*
1,1,$1+$1,$6,$7*
1,1,$1+$1,$8,$9*
0 Add four rect primitives between the rounded corners*
20,1,$1+$1,$2,$3,$4,$5,0*
20,1,$1+$1,$4,$5,$6,$7,0*
20,1,$1+$1,$6,$7,$8,$9,0*
20,1,$1+$1,$8,$9,$2,$3,0*%
G04 Aperture macros list end*
%ADD10R,1.200000X2.500000*%
%ADD11R,1.110000X3.100000*%
%ADD12R,4.400000X3.300000*%
%ADD13R,6.200000X3.900000*%
%ADD14R,0.950000X2.750000*%
%ADD15R,3.250000X2.750000*%
%ADD16R,1.475000X0.600000*%
%ADD17R,0.600000X1.475000*%
%ADD18RoundRect,0.250000X-0.312500X-0.625000X0.312500X-0.625000X0.312500X0.625000X-0.312500X0.625000X0*%
%ADD19RoundRect,0.250000X0.325000X0.650000X-0.325000X0.650000X-0.325000X-0.650000X0.325000X-0.650000X0*%
%ADD20RoundRect,0.250000X0.312500X0.625000X-0.312500X0.625000X-0.312500X-0.625000X0.312500X-0.625000X0*%
%ADD21RoundRect,0.250000X0.375000X0.625000X-0.375000X0.625000X-0.375000X-0.625000X0.375000X-0.625000X0*%
%ADD22R,0.950000X1.000000*%
%ADD23RoundRect,0.250000X-0.650000X0.325000X-0.650000X-0.325000X0.650000X-0.325000X0.650000X0.325000X0*%
%ADD24R,1.000000X2.510000*%
%ADD25RoundRect,0.250000X0.650000X-0.325000X0.650000X0.325000X-0.650000X0.325000X-0.650000X-0.325000X0*%
%ADD26RoundRect,0.250000X-0.325000X-0.650000X0.325000X-0.650000X0.325000X0.650000X-0.325000X0.650000X0*%
%ADD27RoundRect,0.250000X-0.375000X-0.625000X0.375000X-0.625000X0.375000X0.625000X-0.375000X0.625000X0*%
G04 APERTURE END LIST*
D10*
%TO.C,S102*%
X162600000Y-152864000D03*
X165100000Y-152864000D03*
X167600000Y-152864000D03*
X167600000Y-147364000D03*
X165100000Y-147364000D03*
X162600000Y-147364000D03*
%TD*%
%TO.C,S101*%
X100878000Y-152610000D03*
X103378000Y-152610000D03*
X105878000Y-152610000D03*
X105878000Y-147110000D03*
X103378000Y-147110000D03*
X100878000Y-147110000D03*
%TD*%
D11*
%TO.C,K103*%
X106436000Y-138032000D03*
X109636000Y-138032000D03*
X111836000Y-138032000D03*
X114036000Y-138032000D03*
X114036000Y-132732000D03*
X111836000Y-132732000D03*
X109636000Y-132732000D03*
X106436000Y-132732000D03*
%TD*%
%TO.C,K102*%
X129296000Y-138032000D03*
X132496000Y-138032000D03*
X134696000Y-138032000D03*
X136896000Y-138032000D03*
X136896000Y-132732000D03*
X134696000Y-132732000D03*
X132496000Y-132732000D03*
X129296000Y-132732000D03*
%TD*%
%TO.C,K101*%
X153172000Y-138032000D03*
X156372000Y-138032000D03*
X158572000Y-138032000D03*
X160772000Y-138032000D03*
X160772000Y-132732000D03*
X158572000Y-132732000D03*
X156372000Y-132732000D03*
X153172000Y-132732000D03*
%TD*%
D12*
%TO.C,J103*%
X110744000Y-109982000D03*
D13*
X101794000Y-103532000D03*
X101794000Y-116432000D03*
%TD*%
D14*
%TO.C,IC102*%
X135025000Y-105250000D03*
X132725000Y-105250000D03*
X130425000Y-105250000D03*
D15*
X132725000Y-110450000D03*
%TD*%
D16*
%TO.C,IC101*%
X157146000Y-116846000D03*
X157146000Y-116046000D03*
X157146000Y-115246000D03*
X157146000Y-114446000D03*
X157146000Y-113646000D03*
X157146000Y-112846000D03*
X157146000Y-112046000D03*
X157146000Y-111246000D03*
D17*
X155708000Y-109808000D03*
X154908000Y-109808000D03*
X154108000Y-109808000D03*
X153308000Y-109808000D03*
X152508000Y-109808000D03*
X151708000Y-109808000D03*
X150908000Y-109808000D03*
X150108000Y-109808000D03*
D16*
X148670000Y-111246000D03*
X148670000Y-112046000D03*
X148670000Y-112846000D03*
X148670000Y-113646000D03*
X148670000Y-114446000D03*
X148670000Y-115246000D03*
X148670000Y-116046000D03*
X148670000Y-116846000D03*
D17*
X150108000Y-118284000D03*
X150908000Y-118284000D03*
X151708000Y-118284000D03*
X152508000Y-118284000D03*
X153308000Y-118284000D03*
X154108000Y-118284000D03*
X154908000Y-118284000D03*
X155708000Y-118284000D03*
%TD*%
D18*
%TO.C,R110*%
X108787500Y-143150000D03*
X111712500Y-143150000D03*
%TD*%
D19*
%TO.C,C107*%
X144018000Y-113792000D03*
X141068000Y-113792000D03*
%TD*%
D20*
%TO.C,R124*%
X126812500Y-105775000D03*
X123887500Y-105775000D03*
%TD*%
D19*
%TO.C,C105*%
X144018000Y-117602000D03*
X141068000Y-117602000D03*
%TD*%
D21*
%TO.C,D104*%
X126725000Y-102100000D03*
X123925000Y-102100000D03*
%TD*%
D22*
%TO.C,Y101*%
X164071000Y-115915000D03*
X164071000Y-117765000D03*
X165621000Y-117765000D03*
X165621000Y-115915000D03*
%TD*%
D18*
%TO.C,R104*%
X155387500Y-143100000D03*
X158312500Y-143100000D03*
%TD*%
D23*
%TO.C,C102*%
X165106000Y-122200000D03*
X165106000Y-125150000D03*
%TD*%
D24*
%TO.C,JP101*%
X118680000Y-104995000D03*
X121220000Y-108305000D03*
%TD*%
D23*
%TO.C,C101*%
X168662000Y-122200000D03*
X168662000Y-125150000D03*
%TD*%
D19*
%TO.C,C108*%
X144018000Y-109982000D03*
X141068000Y-109982000D03*
%TD*%
D25*
%TO.C,C106*%
X169926000Y-118315000D03*
X169926000Y-115365000D03*
%TD*%
D26*
%TO.C,C111*%
X132475000Y-101225000D03*
X135425000Y-101225000D03*
%TD*%
D24*
%TO.C,J102*%
X139490000Y-98155000D03*
X142030000Y-94845000D03*
X144570000Y-98155000D03*
X147110000Y-94845000D03*
%TD*%
D19*
%TO.C,C110*%
X150350000Y-106150000D03*
X147400000Y-106150000D03*
%TD*%
%TO.C,C109*%
X150250000Y-102500000D03*
X147300000Y-102500000D03*
%TD*%
D26*
%TO.C,C104*%
X163420000Y-111760000D03*
X166370000Y-111760000D03*
%TD*%
D18*
%TO.C,R107*%
X131662500Y-143125000D03*
X134587500Y-143125000D03*
%TD*%
D27*
%TO.C,F101*%
X117650000Y-112700000D03*
X120450000Y-112700000D03*
%TD*%
D23*
%TO.C,C103*%
X161550000Y-122200000D03*
X161550000Y-125150000D03*
%TD*%
D24*
%TO.C,J104*%
X153340000Y-98205000D03*
X155880000Y-94895000D03*
X158420000Y-98205000D03*
X160960000Y-94895000D03*
%TD*%
M02*
